<mxGraphModel dx="1420" dy="850" grid="1" gridSize="10" guides="1" tooltips="1" connect="1" arrows="1" fold="1" page="1" pageScale="1" pageWidth="827" pageHeight="1169" math="0" shadow="0">
    <root>
        <mxCell id="0" />
        <mxCell id="1" parent="0" />
        <mxCell value="문서 작성" style="shape=ellipse;whiteSpace=wrap;html=1;aspect=fixed;" vertex="1" id="2" parent="1">
            <mxGeometry x="50" y="100" width="160" height="80" as="geometry" />
        </mxCell>
        <mxCell value="기안자 (상신)" style="shape=ellipse;whiteSpace=wrap;html=1;aspect=fixed;" vertex="1" id="3" parent="1">
            <mxGeometry x="300" y="100" width="160" height="80" as="geometry" />
        </mxCell>
        <mxCell value="결재자" style="shape=ellipse;whiteSpace=wrap;html=1;aspect=fixed;" vertex="1" id="4" parent="1">
            <mxGeometry x="550" y="100" width="160" height="80" as="geometry" />
        </mxCell>
        <mxCell value="결재 순서" style="shape=ellipse;whiteSpace=wrap;html=1;aspect=fixed;" vertex="1" id="5" parent="1">
            <mxGeometry x="800" y="100" width="160" height="80" as="geometry" />
        </mxCell>
        <mxCell value="문서 수정" style="shape=ellipse;whiteSpace=wrap;html=1;aspect=fixed;" vertex="1" id="6" parent="1">
            <mxGeometry x="50" y="300" width="160" height="80" as="geometry" />
        </mxCell>
        <mxCell value="알림" style="shape=ellipse;whiteSpace=wrap;html=1;aspect=fixed;" vertex="1" id="7" parent="1">
            <mxGeometry x="300" y="300" width="160" height="80" as="geometry" />
        </mxCell>
        <mxCell value="직원" style="shape=actor;whiteSpace=wrap;html=1;" vertex="1" id="13" parent="1">
            <mxGeometry x="50" y="450" width="30" height="60" as="geometry" />
        </mxCell>
        <mxCell value="인사관리자" style="shape=actor;whiteSpace=wrap;html=1;" vertex="1" id="14" parent="1">
            <mxGeometry x="300" y="450" width="30" height="60" as="geometry" />
        </mxCell>
        <mxCell value="결재자" style="shape=actor;whiteSpace=wrap;html=1;" vertex="1" id="15" parent="1">
            <mxGeometry x="550" y="450" width="30" height="60" as="geometry" />
        </mxCell>
        <!-- Connections between actors and use cases -->
        <!-- 직원 connections -->
        <mxCell style="edgeStyle=orthogonalEdgeStyle;rounded=0;html=1;exitX=0.5;exitY=0;exitPerimeter=0;entryX=0.5;entryY=1;entryPerimeter=0;" edge="1" source="13" target="2" id="16" parent="1">
            <mxGeometry relative="1" as="geometry" />
        </mxCell>
        <mxCell style="edgeStyle=orthogonalEdgeStyle;rounded=0;html=1;exitX=0.5;exitY=0;exitPerimeter=0;entryX=0.5;entryY=1;entryPerimeter=0;" edge="1" source="13" target="3" id="17" parent="1">
            <mxGeometry relative="1" as="geometry" />
        </mxCell>
        <mxCell style="edgeStyle=orthogonalEdgeStyle;rounded=0;html=1;exitX=0.5;exitY=0;exitPerimeter=0;entryX=0.5;entryY=1;entryPerimeter=0;" edge="1" source="13" target="7" id="18" parent="1">
            <mxGeometry relative="1" as="geometry" />
        </mxCell>
        <!-- 인사관리자 connections -->
        <mxCell style="edgeStyle=orthogonalEdgeStyle;rounded=0;html=1;exitX=0.5;exitY=0;exitPerimeter=0;entryX=0.5;entryY=1;entryPerimeter=0;" edge="1" source="14" target="4" id="19" parent="1">
            <mxGeometry relative="1" as="geometry" />
        </mxCell>
        <mxCell style="edgeStyle=orthogonalEdgeStyle;rounded=0;html=1;exitX=0.5;exitY=0;exitPerimeter=0;entryX=0.5;entryY=1;entryPerimeter=0;" edge="1" source="14" target="6" id="20" parent="1">
            <mxGeometry relative="1" as="geometry" />
        </mxCell>
        <!-- 결재자 connections -->
        <mxCell style="edgeStyle=orthogonalEdgeStyle;rounded=0;html=1;exitX=0.5;exitY=0;exitPerimeter=0;entryX=0.5;entryY=1;entryPerimeter=0;" edge="1" source="15" target="5" id="21" parent="1">
            <mxGeometry relative="1" as="geometry" />
        </mxCell>
    </root>
</mxGraphModel>
